<svg id="gtlogo" width="493" height="57" viewBox="0 0 493 57" fill="none" xmlns="http://www.w3.org/2000/svg">
    <path d="M24.064 1.088C31.488 1.088 37.344 2.848 41.632 6.368C45.92 9.824 48.064 14.656 48.064 20.864C48.064 27.072 45.888 31.936 41.536 35.456C37.248 38.976 31.424 40.736 24.064 40.736H12.448V56H0.35199V1.088H24.064ZM23.2 30.944C27.36 30.944 30.496 30.08 32.608 28.352C34.784 26.624 35.872 24.128 35.872 20.864C35.872 17.6 34.784 15.136 32.608 13.472C30.496 11.744 27.36 10.88 23.2 10.88H12.448V30.944H23.2Z" fill="white"/>
    <path d="M86.455 56.96C80.759 56.96 75.607 55.744 70.999 53.312C66.391 50.816 62.775 47.424 60.151 43.136C57.527 38.784 56.215 33.92 56.215 28.544C56.215 23.168 57.527 18.336 60.151 14.048C62.775 9.696 66.391 6.304 70.999 3.87199C75.607 1.43999 80.759 0.223999 86.455 0.223999C92.215 0.223999 97.399 1.43999 102.007 3.87199C106.615 6.304 110.231 9.696 112.855 14.048C115.479 18.336 116.791 23.168 116.791 28.544C116.791 33.92 115.479 38.784 112.855 43.136C110.231 47.424 106.615 50.816 102.007 53.312C97.399 55.744 92.215 56.96 86.455 56.96ZM86.455 46.688C89.911 46.688 93.015 45.92 95.767 44.384C98.519 42.784 100.663 40.608 102.199 37.856C103.735 35.104 104.503 32 104.503 28.544C104.503 25.088 103.735 21.984 102.199 19.232C100.663 16.48 98.519 14.336 95.767 12.8C93.015 11.264 89.911 10.496 86.455 10.496C83.063 10.496 79.991 11.296 77.239 12.896C74.487 14.432 72.311 16.576 70.711 19.328C69.175 22.016 68.407 25.088 68.407 28.544C68.407 32 69.175 35.104 70.711 37.856C72.311 40.608 74.487 42.784 77.239 44.384C79.991 45.92 83.063 46.688 86.455 46.688Z" fill="white"/>
    <path d="M164.595 56L153.555 40.448H152.595H140.979V56H128.883V1.088H152.595C160.019 1.088 165.875 2.848 170.163 6.368C174.451 9.824 176.595 14.656 176.595 20.864C176.595 24.96 175.603 28.512 173.619 31.52C171.635 34.464 168.787 36.704 165.075 38.24L177.651 56H164.595ZM164.403 20.864C164.403 17.6 163.315 15.136 161.139 13.472C159.027 11.744 155.891 10.88 151.731 10.88H140.979V30.944H151.731C155.891 30.944 159.027 30.08 161.139 28.352C163.315 26.624 164.403 24.128 164.403 20.864Z" fill="white"/>
    <path d="M199.151 10.976H181.103V1.088H229.295V10.976H211.247V56H199.151V10.976Z" fill="white"/>
    <path d="M250.104 10.88V26.048H276.312V35.744H250.104V56H238.008V1.088H279.576V10.88H250.104Z" fill="white"/>
    <path d="M315.674 56.96C309.978 56.96 304.826 55.744 300.218 53.312C295.61 50.816 291.994 47.424 289.37 43.136C286.746 38.784 285.434 33.92 285.434 28.544C285.434 23.168 286.746 18.336 289.37 14.048C291.994 9.696 295.61 6.304 300.218 3.87199C304.826 1.43999 309.978 0.223999 315.674 0.223999C321.434 0.223999 326.618 1.43999 331.226 3.87199C335.834 6.304 339.45 9.696 342.074 14.048C344.698 18.336 346.01 23.168 346.01 28.544C346.01 33.92 344.698 38.784 342.074 43.136C339.45 47.424 335.834 50.816 331.226 53.312C326.618 55.744 321.434 56.96 315.674 56.96ZM315.674 46.688C319.13 46.688 322.234 45.92 324.986 44.384C327.738 42.784 329.882 40.608 331.418 37.856C332.954 35.104 333.722 32 333.722 28.544C333.722 25.088 332.954 21.984 331.418 19.232C329.882 16.48 327.738 14.336 324.986 12.8C322.234 11.264 319.13 10.496 315.674 10.496C312.282 10.496 309.21 11.296 306.458 12.896C303.706 14.432 301.53 16.576 299.93 19.328C298.394 22.016 297.626 25.088 297.626 28.544C297.626 32 298.394 35.104 299.93 37.856C301.53 40.608 303.706 42.784 306.458 44.384C309.21 45.92 312.282 46.688 315.674 46.688Z" fill="white"/>
    <path d="M358.102 1.088H370.198V46.208H398.422V56H358.102V1.088Z" fill="white"/>
    <path d="M407.508 1.088H419.604V56H407.508V1.088Z" fill="white"/>
    <path d="M462.018 56.96C456.322 56.96 451.169 55.744 446.561 53.312C441.953 50.816 438.338 47.424 435.714 43.136C433.09 38.784 431.777 33.92 431.777 28.544C431.777 23.168 433.09 18.336 435.714 14.048C438.338 9.696 441.953 6.304 446.561 3.87199C451.169 1.43999 456.322 0.223999 462.018 0.223999C467.778 0.223999 472.961 1.43999 477.569 3.87199C482.177 6.304 485.794 9.696 488.418 14.048C491.042 18.336 492.354 23.168 492.354 28.544C492.354 33.92 491.042 38.784 488.418 43.136C485.794 47.424 482.177 50.816 477.569 53.312C472.961 55.744 467.778 56.96 462.018 56.96ZM462.018 46.688C465.474 46.688 468.577 45.92 471.329 44.384C474.081 42.784 476.226 40.608 477.762 37.856C479.298 35.104 480.065 32 480.065 28.544C480.065 25.088 479.298 21.984 477.762 19.232C476.226 16.48 474.081 14.336 471.329 12.8C468.577 11.264 465.474 10.496 462.018 10.496C458.626 10.496 455.554 11.296 452.802 12.896C450.05 14.432 447.873 16.576 446.273 19.328C444.737 22.016 443.97 25.088 443.97 28.544C443.97 32 444.737 35.104 446.273 37.856C447.873 40.608 450.05 42.784 452.802 44.384C455.554 45.92 458.626 46.688 462.018 46.688Z" fill="white"/>
</svg>